<?xml version="1.0" standalone="no"?>
<!DOCTYPE svg PUBLIC "-//W3C//DTD SVG 20010904//EN"
 "http://www.w3.org/TR/2001/REC-SVG-20010904/DTD/svg10.dtd">
<svg version="1.0" xmlns="http://www.w3.org/2000/svg"
 width="128.000000pt" height="128.000000pt" viewBox="0 0 128.000000 128.000000"
 preserveAspectRatio="xMidYMid meet">
<metadata>
Created by potrace 1.11, written by Peter Selinger 2001-2013
</metadata>
<g transform="translate(0.000000,128.000000) scale(0.100000,-0.100000)"
fill="#000000" stroke="none">
<path d="M537 1020 c-149 -37 -265 -160 -297 -315 -42 -203 88 -409 295 -467
53 -15 206 -17 264 -4 170 40 294 200 285 367 -5 98 -46 180 -144 291 -104
119 -253 166 -403 128z m236 -50 c65 -24 89 -47 36 -34 -19 5 -68 9 -109 8
-63 0 -87 -5 -140 -31 -36 -17 -78 -42 -95 -57 -33 -28 -50 -34 -42 -12 3 7
-1 26 -9 41 -12 23 -12 30 -2 37 58 38 82 49 129 62 69 18 160 13 232 -14z
m-388 -100 c4 -6 4 -24 0 -40 -5 -23 -12 -30 -30 -30 -35 0 -39 16 -14 50 24
32 34 36 44 20z m-14 -102 c29 19 30 16 1 -45 -21 -48 -26 -72 -26 -138 1
-100 29 -169 101 -246 42 -46 45 -50 18 -36 -61 31 -124 97 -157 165 -30 62
-33 74 -32 162 0 52 5 107 12 122 10 26 14 27 37 16 21 -9 31 -9 46 0z"/>
</g>
</svg>
